FILE "Revengers of Vengeance (1994)(Micronet)(US).img" BINARY
  TRACK 01 MODE1/2352
    INDEX 01 00:00:00
  TRACK 02 AUDIO
    PREGAP 00:02:00
    INDEX 01 01:57:09
  TRACK 03 AUDIO
    INDEX 00 05:02:70
    INDEX 01 05:04:70
  TRACK 04 AUDIO
    INDEX 00 06:50:27
    INDEX 01 06:52:27
  TRACK 05 AUDIO
    INDEX 00 08:54:22
    INDEX 01 08:56:22
  TRACK 06 AUDIO
    INDEX 00 10:54:21
    INDEX 01 10:56:21
  TRACK 07 AUDIO
    INDEX 00 12:03:32
    INDEX 01 12:05:32
  TRACK 08 AUDIO
    INDEX 00 13:13:68
    INDEX 01 13:15:68
  TRACK 09 AUDIO
    INDEX 00 14:18:19
    INDEX 01 14:20:19
  TRACK 10 AUDIO
    INDEX 00 15:36:19
    INDEX 01 15:38:19
  TRACK 11 AUDIO
    INDEX 00 16:46:20
    INDEX 01 16:48:20
  TRACK 12 AUDIO
    INDEX 00 18:41:37
    INDEX 01 18:43:37
  TRACK 13 AUDIO
    INDEX 00 19:52:11
    INDEX 01 19:54:11
  TRACK 14 AUDIO
    INDEX 00 21:27:58
    INDEX 01 21:29:58
  TRACK 15 AUDIO
    INDEX 00 23:31:61
    INDEX 01 23:33:61
  TRACK 16 AUDIO
    INDEX 00 25:06:26
    INDEX 01 25:08:26
  TRACK 17 AUDIO
    INDEX 00 26:19:23
    INDEX 01 26:21:23
  TRACK 18 AUDIO
    INDEX 00 27:36:06
    INDEX 01 27:38:06
  TRACK 19 AUDIO
    INDEX 00 29:10:06
    INDEX 01 29:12:06
  TRACK 20 AUDIO
    INDEX 00 30:54:03
    INDEX 01 30:56:03
  TRACK 21 AUDIO
    INDEX 00 32:20:03
    INDEX 01 32:22:03
  TRACK 22 AUDIO
    INDEX 00 33:56:04
    INDEX 01 33:58:03
  TRACK 23 AUDIO
    INDEX 00 35:40:02
    INDEX 01 35:42:02
  TRACK 24 AUDIO
    INDEX 00 37:24:01
    INDEX 01 37:26:01
  TRACK 25 AUDIO
    INDEX 00 40:02:60
    INDEX 01 40:04:60
  TRACK 26 AUDIO
    INDEX 00 41:14:47
    INDEX 01 41:16:47
  TRACK 27 AUDIO
    INDEX 00 42:05:46
    INDEX 01 42:07:46
  TRACK 28 AUDIO
    INDEX 00 42:36:42
    INDEX 01 42:38:42
  TRACK 29 AUDIO
    INDEX 00 43:27:46
    INDEX 01 43:29:46
  TRACK 30 AUDIO
    INDEX 00 44:23:30
    INDEX 01 44:25:30
  TRACK 31 AUDIO
    INDEX 00 45:08:64
    INDEX 01 45:10:64
  TRACK 32 AUDIO
    INDEX 00 46:09:30
    INDEX 01 46:11:30
  TRACK 33 AUDIO
    INDEX 00 47:19:10
    INDEX 01 47:21:10
  TRACK 34 AUDIO
    INDEX 00 48:13:72
    INDEX 01 48:15:72
  TRACK 35 AUDIO
    INDEX 00 48:38:51
    INDEX 01 48:40:51
  TRACK 36 AUDIO
    INDEX 00 49:23:58
    INDEX 01 49:25:58
  TRACK 37 AUDIO
    INDEX 00 50:07:34
    INDEX 01 50:09:34
  TRACK 38 AUDIO
    INDEX 00 50:29:59
    INDEX 01 50:31:59
  TRACK 39 AUDIO
    INDEX 00 50:50:28
    INDEX 01 50:52:28
  TRACK 40 AUDIO
    INDEX 00 51:31:61
    INDEX 01 51:33:61
  TRACK 41 AUDIO
    INDEX 00 52:35:26
    INDEX 01 52:37:26
  TRACK 42 AUDIO
    INDEX 00 53:20:54
    INDEX 01 53:22:54
  TRACK 43 AUDIO
    INDEX 00 53:46:43
    INDEX 01 53:48:43
  TRACK 44 AUDIO
    INDEX 00 54:05:36
    INDEX 01 54:07:36
  TRACK 45 AUDIO
    INDEX 00 54:33:07
    INDEX 01 54:35:07
